<svg width="18" height="18" viewBox="0 0 18 18" fill="none" xmlns="http://www.w3.org/2000/svg">
<path d="M8.16699 3.19336C8.4775 3.19354 8.72949 3.44531 8.72949 3.75586C8.72949 4.06641 8.4775 4.31818 8.16699 4.31836H3.16699C2.87415 4.31836 2.59281 4.43453 2.38574 4.6416C2.17867 4.84867 2.0625 5.13001 2.0625 5.42285V14.5889C2.0625 14.8817 2.17867 15.163 2.38574 15.3701C2.59281 15.5772 2.87415 15.6934 3.16699 15.6934H12.333C12.6259 15.6934 12.9072 15.5772 13.1143 15.3701C13.3213 15.163 13.4375 14.8817 13.4375 14.5889V9.58887C13.4377 9.27836 13.6894 9.02637 14 9.02637C14.3106 9.02637 14.5623 9.27836 14.5625 9.58887V14.5889C14.5625 15.1801 14.3272 15.747 13.9092 16.165C13.4911 16.5831 12.9242 16.8184 12.333 16.8184H3.16699C2.57578 16.8184 2.00887 16.5831 1.59082 16.165C1.17277 15.747 0.9375 15.1801 0.9375 14.5889V5.42285C0.9375 4.83164 1.17277 4.26473 1.59082 3.84668C2.00887 3.42863 2.57578 3.19336 3.16699 3.19336H8.16699ZM16.1143 0.375C16.4247 0.375163 16.6766 0.6271 16.6768 0.9375V7.30176C16.6768 7.61232 16.4248 7.86409 16.1143 7.86426C15.8036 7.86426 15.5518 7.61242 15.5518 7.30176V2.51465L7.90137 10.3252C7.68404 10.5469 7.32834 10.5511 7.10645 10.334C6.88452 10.1166 6.88124 9.76001 7.09863 9.53809L14.9717 1.5H9.75C9.43934 1.5 9.1875 1.24816 9.1875 0.9375C9.18769 0.626999 9.43946 0.375 9.75 0.375H16.1143Z" fill="#CC6F5B"/>
</svg>
